<svg width="315" height="68" viewBox="0 0 315 68" fill="none" xmlns="http://www.w3.org/2000/svg">
<path d="M90.8667 0H59.1334C49.1186 0 41 8.11857 41 18.1333V49.8667C41 59.8814 49.1186 68 59.1334 68H90.8667C100.882 68 109 59.8814 109 49.8667V18.1333C109 8.11857 100.882 0 90.8667 0Z" fill="url(#paint0_linear_610_4361)"/>
<path d="M94.686 17.8843L79.1197 8.89699C76.5697 7.42366 73.436 7.42366 70.886 8.89699L55.3196 17.8843C52.7696 19.3577 51.2056 22.072 51.2056 25.013V42.9877C51.2056 45.9287 52.7753 48.6487 55.3196 50.1163L70.886 59.1037C73.436 60.577 76.5697 60.577 79.1197 59.1037L94.686 50.1163C97.236 48.6487 98.8 45.9287 98.8 42.9877V25.013C98.8 22.072 97.2304 19.352 94.686 17.8843ZM95.995 42.7327L77.9523 53.148C77.9127 53.1707 77.873 53.182 77.8333 53.199C77.822 53.2047 77.8163 53.216 77.7993 53.2273C76.0087 54.253 74.1217 54.3607 72.3763 53.3293C72.365 53.3237 72.348 53.3067 72.3367 53.301C72.3027 53.284 72.2687 53.2727 72.2403 53.2557L53.9993 42.727C53.0813 42.1943 52.764 41.0213 53.2966 40.1033L53.342 40.0297C53.8746 39.1117 55.0476 38.7943 55.9656 39.327L64.4033 44.2003V36.998L55.3026 31.745C54.362 31.201 54.0446 30.0053 54.583 29.0647C55.127 28.124 56.3226 27.8067 57.2633 28.345L67.3783 34.1873C67.9337 34.414 68.3247 34.958 68.3247 35.5983V46.467L73.147 49.2493V30.4303L63.865 25.0697C62.9243 24.5257 62.607 23.33 63.1453 22.3893C63.6893 21.4487 64.885 21.1313 65.8257 21.6697L73.147 25.897V18.179C73.147 17.0967 74.0253 16.2183 75.1077 16.2183C76.19 16.2183 77.0683 17.0967 77.0683 18.179V25.778L84.1857 21.6697C85.1263 21.1257 86.322 21.4487 86.866 22.3893C87.41 23.33 87.087 24.5257 86.1464 25.0697L77.0683 30.3113V49.1247L81.7433 46.4273V35.5983C81.7433 34.958 82.1343 34.414 82.6897 34.1873L92.8047 28.345C93.7454 27.801 94.941 28.124 95.485 29.0647C96.029 30.0053 95.706 31.201 94.7654 31.745L85.6647 36.998V44.155L94.023 39.327C94.941 38.7943 96.1197 39.1117 96.6524 40.0297L96.692 40.0977C97.2247 41.0157 96.9074 42.1943 95.9894 42.727L95.995 42.7327Z" fill="#FDFDFD"/>
<path d="M162.12 19.2002H148.66L144.36 55H137.769L142.07 19.2002H129L129.727 13.0566H162.847L162.12 19.2002ZM170.207 41.7637C170.133 42.2477 170.096 42.9181 170.096 43.7744C170.096 45.7104 170.542 47.0512 171.436 47.7959C172.367 48.5406 173.857 48.9121 175.904 48.9121L183.556 48.8564L186.572 23.8916H192.995L189.197 55H175.178C167.471 54.9999 163.617 51.4629 163.617 44.3887C163.617 43.5323 163.673 42.601 163.784 41.5957L165.963 23.8916H172.386L170.207 41.7637ZM212.621 23.8916C214.483 23.8916 216.065 23.9469 217.368 24.0586L216.363 29.9795C214.055 29.905 212.565 29.8672 211.895 29.8672C209.512 29.8672 207.725 30.4445 206.533 31.5986C205.342 32.7156 204.597 34.5773 204.299 37.1836L202.065 55H195.642L197.82 37.3516C198.379 32.6232 199.794 29.1975 202.065 27.0752C204.373 24.9529 207.892 23.8916 212.621 23.8916ZM224.614 55H218.192L222.045 23.8906H228.469L224.614 55ZM251.925 28.583L264.269 13.0557H272.255L255.22 33.9443L267.732 55H259.856L250.584 38.8594L237.348 55H229.138L247.234 33.4971L235.448 13.0557H243.212L251.925 28.583ZM229.362 19.7021H222.045L222.883 13H230.199L229.362 19.7021Z" fill="url(#paint1_linear_610_4361)"/>
<defs>
<linearGradient id="paint0_linear_610_4361" x1="49.6587" y1="5.73467" x2="100.596" y2="62.5544" gradientUnits="userSpaceOnUse">
<stop stop-color="#C768B9"/>
<stop offset="0.5" stop-color="#F7AD8A"/>
<stop offset="1" stop-color="#FAD076"/>
</linearGradient>
<linearGradient id="paint1_linear_610_4361" x1="125.553" y1="19.8714" x2="237.801" y2="-32.4021" gradientUnits="userSpaceOnUse">
<stop stop-color="#C868B9"/>
<stop offset="0.504808" stop-color="#F8AF88"/>
<stop offset="0.967901" stop-color="#FAD076"/>
</linearGradient>
</defs>
</svg>
