<svg xmlns="http://www.w3.org/2000/svg" xmlns:xlink="http://www.w3.org/1999/xlink" fill="none" version="1.1" width="350" height="100" viewBox="0 0 350 100"><g><path d="M53.793827,2.1081078L83.792145,19.254053C88.695389,22.054054,91.720345,27.243244,91.720345,32.854053L91.720345,67.145943C91.720345,72.75676,88.706314,77.945953,83.792145,80.745956L53.793827,97.891907C48.879658,100.7027,42.840694,100.7027,37.926514,97.891907L7.9282026,80.745956C3.0249484,77.945953,0,72.75676,0,67.145943L0,32.854053C0,27.243244,3.0140278,22.064863,7.9282026,19.254053L37.926514,2.1081078C42.840694,-0.70270276,48.879658,-0.70270276,53.793827,2.1081078ZM269.78833,15L268.42731,26.170071L280.31372,26.170071L281.6748,15L269.78833,15ZM118.44764,15.094238L117.26807,25.333475L138.50034,25.333475L131.51366,85.000298L142.22052,85.000298L149.20721,25.333475L171.07463,25.333475L172.25421,15.094238L118.44764,15.094238ZM293.28989,85.000298L279.95166,85.000298L309.35019,49.162971L290.20486,15.094238L302.8172,15.094238L316.97205,40.971577L337.02472,15.094238L350.00003,15.094238L322.32547,49.907639L342.65039,85.000298L329.85657,85.000298L314.79437,58.099033L293.28989,85.000298ZM51.544235,86.529747L86.314758,66.65947L86.303841,66.648651C88.072945,65.632431,88.684479,63.383797,87.657974,61.632439L87.581512,61.502708C86.555008,59.751347,84.283569,59.14595,82.51445,60.162159L66.406891,69.372978L66.406891,55.718914L83.94503,45.697296C85.757812,44.659458,86.38028,42.378376,85.331909,40.58379C84.283569,38.789185,81.979362,38.172974,80.166565,39.210815L60.673679,50.356762C59.603489,50.789192,58.849979,51.827026,58.849979,53.048653L58.849979,73.708107L49.840652,78.854057L49.840652,42.962166L67.335114,32.962166C69.147903,31.924328,69.77037,29.643242,68.722008,27.848652C67.673645,26.054052,65.369446,25.437843,63.55666,26.475679L49.840652,34.313519L49.840652,19.816217C49.840652,17.751354,48.147995,16.075678,46.062206,16.075678C43.97641,16.075678,42.283749,17.751354,42.283749,19.816217L42.283749,34.540543L28.174604,26.475679C26.361822,25.44865,24.057619,26.054052,23.00926,27.848652C21.971823,29.643242,22.583364,31.924328,24.396147,32.962166L42.283749,43.18919L42.283749,79.091904L32.990501,73.783783L32.990501,53.048653C32.990501,51.827026,32.236992,50.789192,31.16679,50.356762L11.673898,39.210815C9.8611116,38.183784,7.5569086,38.789185,6.5085511,40.58379C5.4711137,42.378376,6.0826559,44.659458,7.8954415,45.697296L25.433586,55.718914L25.433586,69.459457L9.1731262,60.162159C7.4040241,59.14595,5.1435037,59.751347,4.1169872,61.502708L4.029624,61.643242C3.0031075,63.394588,3.6146491,65.632431,5.3837523,66.648651L40.536488,86.735146C40.591091,86.76757,40.656612,86.789192,40.722134,86.821625C40.743973,86.832436,40.776737,86.864868,40.798573,86.875679C44.162056,88.843246,47.798546,88.637833,51.249386,86.681084C51.282146,86.659447,51.293064,86.637833,51.314903,86.627029C51.39135,86.594597,51.467793,86.572975,51.544235,86.529747ZM210.8004,33.151367L205.90063,74.759895L193.46979,74.852982C190.14279,74.852982,187.72314,74.232422,186.21088,72.991302C184.75909,71.750183,184.03322,69.516174,184.03322,66.289261C184.03322,64.861969,184.0937,63.744965,184.21469,62.93824L187.75339,33.151367L177.31873,33.151367L173.78001,62.658985C173.59854,64.334503,173.50781,65.885895,173.50781,67.313179Q173.50781,84.999138,192.29022,84.999138L215.065,84.999138L221.23506,33.151367L210.8004,33.151367ZM259.19537,43.29752C255.44495,43.173409,253.0253,43.111351,251.93646,43.111351C248.06505,43.111351,245.1615,44.073215,243.22578,45.996952C241.29007,47.858631,240.08026,50.961437,239.59634,55.305351L235.96689,84.999138L225.53223,84.999138L229.07094,55.58461C229.9783,47.703499,232.27695,41.99435,235.96689,38.457157Q241.59253,33.151367,253.11604,33.151367C256.14056,33.151367,258.71143,33.244453,260.82861,33.430618L259.19537,43.29752ZM262.1665,84.999138L272.60117,84.999138L278.86197,33.151367L268.42731,33.151367L262.1665,84.999138Z" fill-rule="evenodd" fill="#000000" fill-opacity="1"/></g></svg>